<svg id="visual" viewBox="0 0 900 600" width="900" height="600" xmlns="http://www.w3.org/2000/svg" xmlns:xlink="http://www.w3.org/1999/xlink" version="1.1"><rect x="0" y="0" width="900" height="600" fill="#EDEEF2"></rect><path d="M0 397L150 380L300 425L450 398L600 394L750 312L900 320L900 601L750 601L600 601L450 601L300 601L150 601L0 601Z" fill="#e5e5e5"></path><path d="M0 470L150 423L300 384L450 442L600 444L750 443L900 375L900 601L750 601L600 601L450 601L300 601L150 601L0 601Z" fill="#d8d8d8"></path><path d="M0 497L150 515L300 459L450 483L600 447L750 514L900 459L900 601L750 601L600 601L450 601L300 601L150 601L0 601Z" fill="#cccccc"></path><path d="M0 523L150 501L300 532L450 560L600 544L750 491L900 515L900 601L750 601L600 601L450 601L300 601L150 601L0 601Z" fill="#c0c0c0"></path></svg>